# xmcd
#
# Track frame offsets: 
#        150
#        22262
#        48162
#        76797
#        97187
#        121657
#        144717
#        168492
#
# Disc length: 2513 seconds
#
# Revision: 3
# Processed by: cddbd v1.5.2PL0 Copyright (c) Steve Scherf et al.
# Submitted via: ExactAudioCopy v0.95b4
#
DISCID=6409cf08
DTITLE=Gaye Delorme - Blue Wave Sessions
DYEAR=1990
DGENRE=Blues
TTITLE0=Downtown L.A.
TTITLE1=Sailor, Sailor
TTITLE2=Thin Man
TTITLE3=Lucy From Lima
TTITLE4=Hallelujah
TTITLE5=Fast Horizon
TTITLE6=Bahia
TTITLE7=Hoo Doo Trail
EXTD=
EXTT0=
EXTT1=
EXTT2=
EXTT3=
EXTT4=
EXTT5=
EXTT6=
EXTT7=
PLAYORDER=
